<?xml version="1.0" encoding="UTF-8" standalone="no"?>
<svg width="53px" height="76px" viewBox="0 0 53 76" version="1.1" xmlns="http://www.w3.org/2000/svg" xmlns:xlink="http://www.w3.org/1999/xlink">
    <!-- Generator: Sketch 3.8.3 (29802) - http://www.bohemiancoding.com/sketch -->
    <title>menu-icon</title>
    <desc>Created with Sketch.</desc>
    <defs>
        <polygon id="path-1" points="0 75.5282933 53 75.5282933 53 0.592856496 0 0.592856496"></polygon>
    </defs>
    <g id="Symbols" stroke="none" stroke-width="1" fill="none" fill-rule="evenodd">
        <g id="Header" transform="translate(-1318.000000, -61.000000)">
            <g id="menu-icon" transform="translate(1318.000000, 61.000000)">
                <path d="M0,75.747163 L53,75.747163 L53,10.776588 L0,10.776588 L0,75.747163 Z M2.40909091,73.3115785 L50.5909091,73.3115785 L50.5909091,13.2129846 L2.40909091,13.2129846 L2.40909091,73.3115785 Z" id="Fill-1" fill="#303030"></path>
                <polygon id="Fill-2" fill="#303030" points="12.3395242 29.7919323 13.3698121 23.2948748 14.6024636 23.2948748 16.2021 27.1817394 17.8001303 23.2948748 19.0327818 23.2948748 20.0630697 29.7919323 18.5798727 29.7919323 18.0699485 25.9156254 16.4614788 29.7919323 15.9411152 29.7919323 14.3326455 25.9156254 13.8227212 29.7919323"></polygon>
                <polygon id="Fill-3" fill="#303030" points="25.2209333 24.5613949 23.0728273 24.5613949 23.0728273 25.8177634 25.1141303 25.8177634 25.1141303 27.0838775 23.0728273 27.0838775 23.0728273 28.5254121 25.2209333 28.5254121 25.2209333 29.7915262 21.5904333 29.7915262 21.5904333 23.2944687 25.2209333 23.2944687"></polygon>
                <polygon id="Fill-4" fill="#303030" points="26.8427333 29.7919323 26.8427333 23.2948748 28.1324 23.2948748 31.6191576 27.4830405 31.6191576 23.2948748 33.1023545 23.2948748 33.1023545 29.7919323 31.8118848 29.7919323 28.3259303 25.5834633 28.3259303 29.7919323"></polygon>
                <g id="Group-12" transform="translate(0.000000, 0.218870)">
                    <path d="M40.3585364,26.9240499 C40.3585364,27.5477674 40.2814455,28.3168566 39.6454455,28.9787443 C39.0295212,29.6211409 38.3172333,29.7185967 37.6426879,29.7185967 C36.9681424,29.7185967 36.2558545,29.6211409 35.6391273,28.9787443 C35.0039303,28.3168566 34.9268394,27.5477674 34.9268394,26.9240499 L34.9268394,23.0761676 L36.4100364,23.0761676 L36.4100364,26.8842554 C36.4100364,27.1676895 36.4285061,27.6444111 36.7473091,27.9757611 C37.0066879,28.2583831 37.3640364,28.3168566 37.6426879,28.3168566 C37.9221424,28.3168566 38.2778848,28.2583831 38.5380667,27.9757611 C38.8560667,27.6444111 38.8753394,27.1676895 38.8753394,26.8842554 L38.8753394,23.0761676 L40.3585364,23.0761676 L40.3585364,26.9240499 L40.3585364,26.9240499 Z" id="Fill-5" fill="#303030"></path>
                    <mask id="mask-2" fill="white">
                        <use xlink:href="#path-1"></use>
                    </mask>
                    <g id="Clip-8"></g>
                    <polygon id="Fill-7" fill="#303030" mask="url(#mask-2)" points="8.83333333 43.0430059 43.3636364 43.0430059 43.3636364 38.982345 8.83333333 38.982345"></polygon>
                    <polygon id="Fill-9" fill="#303030" mask="url(#mask-2)" points="8.83333333 51.9764599 43.3636364 51.9764599 43.3636364 47.915799 8.83333333 47.915799"></polygon>
                    <polygon id="Fill-10" fill="#303030" mask="url(#mask-2)" points="8.83333333 60.0977818 43.3636364 60.0977818 43.3636364 56.0371209 8.83333333 56.0371209"></polygon>
                    <polygon id="Fill-11" fill="#303030" mask="url(#mask-2)" points="1.05397727 12.8989331 0.552083333 10.5161373 46.5761591 0.593506202 46.5761591 12.1818204 44.1670682 12.1818204 44.1670682 3.60408022"></polygon>
                </g>
            </g>
        </g>
    </g>
</svg>